# xmcd
#
# Track frame offsets:
#	150
#	19434
#	38387
#	62576
#	80544
#	96123
#	115481
#	138408
#	158579
#	177673
#	193911
#	214889
#	234959
#	260443
#
# Disc length: 3710 seconds
#
# Revision: 4
# Processed by: cddbd v1.5.2PL0 Copyright (c) Steve Scherf et al.
# Submitted via: EasyCDDAExtractor 15.3.0.1
#
DISCID=c00e7c0e
DTITLE=Ricardo Montaner - Un Camino De Exitos
DYEAR=2008
DGENRE=Latin
TTITLE0=Hoy Tengo Ganas De Ti
TTITLE1=Quisiera
TTITLE2=Una Mañana Y Un Camino
TTITLE3=Soy Tuyo
TTITLE4=Nada
TTITLE5=Arrancame La Vida
TTITLE6=Es Asi
TTITLE7=Herida De Amor
TTITLE8=Pasa Todo (Passa Tutto)
TTITLE9=Viene Del Alma
TTITLE10=Cuando A Mi Lado Estas
TTITLE11=Procuro Olvidarte
TTITLE12=Cachita
TTITLE13=Tengo Verano
EXTD=
EXTT0=
EXTT1=
EXTT2=
EXTT3=
EXTT4=
EXTT5=
EXTT6=
EXTT7=
EXTT8=
EXTT9=
EXTT10=
EXTT11=
EXTT12=
EXTT13=
PLAYORDER=
